<?xml version="1.0" encoding="utf-8"?>
<svg width="340.82816px" height="93.78779px" viewBox="0 0 340.82816 93.78779" version="1.1" xmlns:xlink="http://www.w3.org/1999/xlink" xmlns="http://www.w3.org/2000/svg">
  <g id="logotype">
    <g id="soft_word" transform="translate(202.89996 20.17903)">
      <g id="letter_t" transform="translate(118.81174 3.5266113)">
        <path d="M13.9087 64.9895C11.6289 65.5414 3.61064 67.6385 3.98285 56.5126C4.35506 45.3867 11.0085 4.06184 10.9309 0" id="letter_t_stem" fill="none" fill-rule="evenodd" stroke="#FFFFFF" stroke-width="2.5" />
        <path d="M0 20.4525L17.8665 20.4525" id="letter_t_bar" fill="none" fill-rule="evenodd" stroke="#FFFFFF" stroke-width="2.5" />
      </g>
      <g id="letter_f" transform="translate(92.012146 3.8707504)">
        <path d="M2.23326 68.488C9.31296 63.2983 11.937 35.8293 11.1665 16.066C10.396 -3.69729 26.7997 0.339586 26.7997 0.339586" id="f_stem" fill="none" fill-rule="evenodd" stroke="#FFFFFF" stroke-width="2.5" />
        <path d="M0 21.0643C9.10048 21.7358 19.21 20.7767 21.2165 21.0643" id="f_bar" fill="none" fill-rule="evenodd" stroke="#FFFFFF" stroke-width="2.5" />
      </g>
      <path d="M74.4551 25.4345C62.1338 23.9678 55.6262 35.8089 53.2726 46.8989C50.9189 57.9888 52.9078 68.1368 65.0407 69.7943C77.1736 71.4519 85.0464 61.5662 87.4001 50.4763C89.7537 39.3863 86.7764 26.9012 74.4551 25.4345Z" id="letter_o" fill="none" fill-rule="evenodd" stroke="#FFFFFF" stroke-width="2.5" />
      <path d="M47.6438 16.2484C47.6056 13.2283 47.6057 4.65607 39.0925 1.19136C30.5792 -2.27335 17.9428 2.08942 13.438 10.7729C8.93322 19.4565 12.7417 27.2673 19.5462 31.3055C26.3507 35.3438 34.0593 34.6317 39.0925 39.5185C44.1256 44.4052 44.8707 50.3868 41.5357 57.3134C38.2006 64.2399 27.3402 69.6737 19.5462 68.264C11.7522 66.8542 10.4602 66.8951 0 60.051" id="letter_s" fill="none" fill-rule="evenodd" stroke="#FFFFFF" stroke-width="2.5" />
    </g>
    <g id="panino_word">
      <path d="M185.885 48.6452C170.855 48.576 165.562 63.8988 165.562 74.1119C165.562 84.3251 171.772 92.2429 182.498 91.8277C193.224 91.4125 201.903 82.7332 202.82 70.7899C203.738 58.8467 199.239 48.7662 185.885 48.6452ZM175.185 81.6228C173.313 79.3065 172.377 76.2391 172.377 72.4205C172.377 67.698 173.388 63.5378 175.411 59.9399C177.796 55.6981 181.143 53.5883 185.451 53.6104C189.871 53.6332 192.894 55.1284 194.52 58.0961C195.92 60.6508 196.445 64.485 196.093 69.5986C195.792 73.9712 194.377 77.6053 191.847 80.5009C189.38 83.3248 186.412 84.8117 182.942 84.9617C179.684 85.1027 177.099 83.9897 175.185 81.6228L175.185 81.6228Z" id="letter_o" fill="#FFFFFF" fill-rule="evenodd" stroke="none" />
      <path d="M123.576 89.4403C124.088 90.0575 130.003 89.8943 130.55 89.4403C130.873 89.1719 133.564 79.6923 135.016 72.1223C136.469 64.5524 137.584 61.0443 138.321 59.8394C140.122 56.8929 142.088 54.3319 147.725 53.575C153.362 52.818 155.911 61.0003 155.911 68.6285C155.911 76.2566 150.746 89.6535 152.374 90.1193C154.001 90.5852 156.79 90.1777 158.185 90.1194C159.58 90.0611 163.613 75.1386 163.997 68.6285C164.38 62.1183 163.055 47.3562 148.887 47.7519C142.343 48.2409 140.297 51.2795 139.483 51.6871C138.669 52.0947 140.238 47.4944 139.483 47.0286C138.727 46.5627 133.497 46.3848 132.509 47.0287C131.521 47.6725 129.786 59.0205 128.043 69.7931C126.299 80.5658 123.065 88.8231 123.576 89.4403Z" id="letter_n_2" fill="#FFFFFF" fill-rule="evenodd" stroke="none" />
      <g id="letter_i" transform="translate(113.15388 36.591034)">
        <path d="M0.0129537 52.6767C0.386062 53.0746 6.51813 53.0335 6.87404 52.6767C7.22997 52.32 15.2135 14.6488 14.8784 14.4349C14.5434 14.221 8.58907 14.156 8.01743 14.4349C7.4458 14.7139 -0.360155 52.2788 0.0129537 52.6767Z" id="letter_i_stem" fill="#FFFFFF" fill-rule="evenodd" stroke="none" />
        <path d="M8.87948 6.0081C9.10273 1.24429 12.6017 -0.319622 14.835 0.0525963C17.0683 0.424815 18.0919 5.52421 17.8127 7.49697C17.5336 9.46973 14.9613 10.6584 13.4166 10.5653C11.8718 10.4723 8.65622 10.7719 8.87948 6.0081Z" id="letter_i_dot" fill="#FFFFFF" fill-rule="evenodd" stroke="none" />
      </g>
      <path d="M74.7451 88.7384C75.2565 89.3556 81.1724 89.1924 81.7187 88.7384C82.0416 88.47 81.4791 78.3114 82.9319 70.7414C84.3848 63.1715 86.7933 59.6635 87.5301 58.4586C89.3316 55.5121 91.1912 51.0632 96.8282 50.3063C102.465 49.5493 105.015 59.6194 105.015 67.2476C105.015 74.8757 99.8501 88.2726 101.477 88.7384C103.105 89.2043 105.894 88.7967 107.289 88.7384C108.683 88.6801 112.717 73.7577 113.1 67.2476C113.484 60.7375 112.159 44.0875 97.9905 44.4832C91.447 44.9722 89.5059 49.8987 88.6923 50.3063C87.8787 50.7139 89.4478 46.1136 88.6923 45.6477C87.9368 45.1819 82.7066 45.004 81.7187 45.6478C80.7308 46.2917 77.7017 57.6395 75.9583 68.4122C74.2149 79.1848 74.2336 88.1212 74.7451 88.7384Z" id="letter_n" fill="#FFFFFF" fill-rule="evenodd" stroke="none" />
      <path d="M32.5472 54.1754C33.2941 52.67 34.3092 51.1522 35.5922 49.6221C36.7248 48.2716 39.9352 46.7285 45.2235 44.9929C51.4414 42.9523 56.9133 42.1846 61.6391 42.6897C69.4345 43.5221 74.1085 46.6342 75.6614 52.0262C76.1364 53.6743 74.2086 58.2866 72.6464 64.7788C72.0364 67.3142 71.5899 69.2474 71.307 70.5784C70.338 75.136 69.8464 80.0622 69.8323 85.3568C69.8309 85.8804 69.8292 86.2679 69.8273 86.5194L69.8237 86.9815L69.2154 87.0637C68.8246 87.1166 68.3304 87.1835 67.733 87.2647C65.6359 87.5494 64.3176 87.6914 63.7778 87.6907C63.1748 87.6899 62.4756 87.7062 61.6801 87.7394C60.548 87.7867 59.683 87.6351 59.0851 87.2844C58.5043 86.9438 58.2023 86.4501 58.179 85.8035C58.1602 85.2826 58.3562 84.6028 58.7667 83.7642C57.9483 84.0626 56.9942 84.4613 55.9044 84.9603C51.7565 86.8592 47.7085 87.786 43.7605 87.7402C39.265 87.6882 35.1133 86.5981 31.3055 84.4704C27.4325 82.3061 25.3848 79.8835 25.1626 77.2026C24.7182 71.8422 26.8094 67.9689 31.4363 65.5827C38.336 61.9997 48.7716 60.4774 62.7432 61.0159C64.068 59.4377 65.5651 57.013 64.4662 54.8262C63.2794 52.4643 61.2478 51.0078 58.3713 50.4565C52.8825 49.4039 48.1793 50.8197 44.2618 54.704C42.7838 56.1691 40.3779 56.7705 37.0439 56.5081C35.761 56.4071 34.6898 56.1853 33.8304 55.8426C32.6559 55.3743 32.2281 54.8186 32.5472 54.1754L32.5472 54.1754ZM48.2387 82.7324C39.4503 83.6613 33.514 79.5872 32.3174 77.1681C31.1208 74.749 31.4963 69.0996 36.5328 67.7701C41.5693 66.4405 61.796 63.8184 61.6385 69.3782C61.4811 74.938 57.0271 81.8034 48.2387 82.7324Z" id="letter_a" fill="#FFFFFF" fill-rule="evenodd" stroke="none" />
      <path d="M9.74786 88.6905C9.66889 88.7004 9.5422 88.7163 9.36777 88.7384C4.32466 89.3757 1.29382 89.3119 0.27527 88.5471C-0.699692 87.8148 0.915219 75.4391 5.12 51.4199C9.31876 27.4352 12.1336 14.6334 13.5644 13.0146C18.4944 7.43668 28.5655 3.38596 43.7776 0.862436C52.2684 -0.546091 60 -0.229318 66.9723 1.81276C74.6995 4.07592 79.1619 7.92073 80.3593 13.3472C82.4083 22.6317 75.7941 29.8683 60.5165 35.057C60.0121 35.2282 59.2705 35.4727 58.2916 35.7902C48.9954 38.8058 35.4577 46.4355 17.6786 58.6793C16.5317 61.0192 15.185 66.7258 13.6386 75.7992C12.1984 84.2492 10.9015 88.5463 9.74786 88.6905L9.74786 88.6905ZM23.0705 47.1345C29.3357 44.8259 47.5938 32.7617 54.9144 30.5691C55.6671 30.3436 56.2359 30.1706 56.621 30.0498C67.7909 26.5471 72.6573 21.7892 71.2201 15.7762C70.3915 12.3091 67.2057 9.82617 61.6629 8.32725C56.4364 6.91389 50.6248 6.69709 44.2281 7.67686C32.7266 9.43851 25.1589 12.2175 21.5249 16.0138C20.5614 17.0203 18.474 25.9926 15.2625 42.9305C14.6864 47.8164 16.8053 49.4431 23.0705 47.1345Z" id="letter_p" fill="#FFFFFF" fill-rule="evenodd" stroke="none" />
    </g>
  </g>
</svg>